<svg width="22" height="22" viewBox="0 0 22 22" fill="none" xmlns="http://www.w3.org/2000/svg">
<ellipse cx="11.113" cy="10.028" rx="1.33272" ry="1.33272" fill="#999999"/>
<path d="M14.0361 15.4644L12.8899 14.2738L12.8277 14.2116L11.6994 13.0832C11.5203 13.1146 11.3391 13.1324 11.1574 13.1365C10.325 13.1484 9.52256 12.8261 8.92973 12.2416C8.33691 11.6571 8.00319 10.8594 8.00328 10.0269C8.0074 9.84511 8.02522 9.66394 8.05659 9.48488L6.27962 7.70792L4.89359 6.35742C3.89078 7.30229 3.03169 8.38888 2.34364 9.58261C2.18493 9.85751 2.18493 10.1962 2.34364 10.4711C2.90339 11.4395 5.89757 16.2462 11.1307 16.2462H11.3529C12.3369 16.217 13.3082 16.0156 14.2227 15.651L14.0361 15.4644Z" fill="#999999"/>
<path d="M8.08289 4.48373L10.5706 6.97148C10.7497 6.94011 10.9309 6.92229 11.1126 6.91817C12.8301 6.91817 14.2223 8.31043 14.2223 10.0279C14.2182 10.2096 14.2004 10.3908 14.169 10.5698L16.5501 12.951L17.2965 13.6973C18.3119 12.7549 19.183 11.6682 19.8819 10.4721C20.0406 10.1972 20.0406 9.85852 19.8819 9.58362C19.3133 8.5974 16.1858 3.64855 10.8727 3.80848C9.88869 3.83767 8.91739 4.03915 8.00293 4.40376L8.08289 4.48373Z" fill="#999999"/>
<path d="M18.8519 16.5044L17.6969 15.3582L15.9199 13.5813L7.4616 5.11402L6.15553 3.80795L4.63622 2.28864C4.28783 1.94025 3.72297 1.94025 3.37458 2.28864C3.02618 2.63703 3.02618 3.20189 3.37458 3.55029L5.36478 5.58491L6.91962 7.09533L13.4144 13.5813L13.4766 13.6435L14.6672 14.834L15.1914 15.3582L17.5903 17.766C17.7571 17.9342 17.9842 18.0288 18.2211 18.0288C18.458 18.0288 18.6851 17.9342 18.8519 17.766C19.0201 17.5992 19.1148 17.3721 19.1148 17.1352C19.1148 16.8983 19.0201 16.6712 18.8519 16.5044Z" fill="#999999"/>
</svg>
