<svg width="22" height="22" viewBox="0 0 22 22" fill="none" xmlns="http://www.w3.org/2000/svg">
<path d="M15.7218 3.21369C15.7218 2.96065 15.5256 2.75551 15.2835 2.75551H13.0922C10.7952 2.63588 8.83697 4.47835 8.70963 6.87914V9.35331H6.51834C6.27629 9.35331 6.08008 9.55845 6.08008 9.81149V12.194C6.08008 12.4471 6.27629 12.6522 6.51834 12.6522H8.70963V18.7918C8.70963 19.0449 8.90585 19.25 9.14789 19.25H11.7775C12.0195 19.25 12.2157 19.0449 12.2157 18.7918V12.6522H14.5122C14.7127 12.6552 14.8896 12.5156 14.9417 12.3132L15.5728 9.93062C15.6081 9.79341 15.5806 9.64683 15.4982 9.53381C15.4158 9.42078 15.288 9.35411 15.1521 9.35331L12.2157 9.35331V6.87914C12.2609 6.40913 12.6404 6.05204 13.0922 6.05441H15.2835C15.5256 6.05441 15.7218 5.84928 15.7218 5.59623V3.21369Z" fill="white"/>
</svg>
