<svg width="45" height="45" viewBox="0 0 45 45" fill="none" xmlns="http://www.w3.org/2000/svg">
<path d="M22.5552 0.0722656C10.4046 0.0722656 0.554688 9.92222 0.554688 22.0727C0.554688 34.2233 10.4046 44.0733 22.5552 44.0733C34.7057 44.0733 44.5556 34.2233 44.5556 22.0727C44.5556 9.92222 34.7057 0.0722656 22.5552 0.0722656ZM32.0154 16.8146L21.9611 30.0149C21.5458 30.5545 20.904 30.8713 20.2231 30.873C19.546 30.8766 18.9049 30.5682 18.4851 30.0369L13.117 23.1948C12.3697 22.2349 12.5421 20.851 13.502 20.1037C14.4619 19.3564 15.8458 19.5288 16.593 20.4887L20.1791 25.0648L28.4953 14.0646C29.2365 13.0925 30.6253 12.9054 31.5974 13.6466C32.5694 14.3878 32.7566 15.7766 32.0154 16.7486V16.8146Z" fill="#6200ED"/>
</svg>
