<svg width="302" height="81" viewBox="0 0 302 81" fill="none" xmlns="http://www.w3.org/2000/svg">
<path d="M20.301 47.226C17.546 47.226 15.266 45.098 15.266 40.329C15.266 35.541 17.413 33.394 21.441 33.394C25.222 33.394 27.198 35.237 27.198 39.17L22.562 39.55C22.486 38.486 22.011 37.878 21.441 37.878C20.738 37.878 20.434 38.771 20.434 40.329C20.434 41.906 20.738 42.799 21.441 42.799C21.916 42.799 22.125 42.419 22.125 41.412V41.146H21.137V40.462H27.141V46.998H23.55L23.36 42.191H23.151C23.132 45.288 22.752 47.226 20.301 47.226ZM27.733 46.998L29.823 33.698H37.081L38.981 46.998H34.041L33.946 45.041H32.806L32.711 46.998H27.733ZM32.977 42.267H33.775L33.509 38.866H33.243L32.977 42.267ZM39.5568 46.998V33.698H44.1548L46.3968 39.018H46.5868V33.698H49.8548V46.998H45.2568L42.9768 41.317H42.8248V46.998H39.5568ZM50.4254 46.998L52.5154 33.698H59.7734L61.6734 46.998H56.7334L56.6384 45.041H55.4984L55.4034 46.998H50.4254ZM55.6694 42.267H56.4674L56.2014 38.866H55.9354L55.6694 42.267ZM62.0591 38.98L63.2561 35.332L65.7831 36.985L65.5171 33.698H69.3551L68.5761 36.605L71.6161 35.332L72.7941 38.98L69.7921 39.132L71.9391 41.64L68.8421 43.901L67.7591 41.051L66.0301 43.901L62.9331 41.64L65.2891 39.74L62.0591 38.98Z" fill="#1A5FED"/>
<path d="M145.366 46.5975C141.547 46.5975 139.837 44.6215 139.837 40.2135V33.0505H144.625V40.4035C144.625 41.6005 144.682 42.1135 145.366 42.1135C146.05 42.1135 146.107 41.6005 146.107 40.4035V33.0505H150.895V40.2135C150.895 44.6215 149.185 46.5975 145.366 46.5975ZM151.656 46.3125V33.0125H156.254L158.496 38.3325H158.686V33.0125H161.954V46.3125H157.356L155.076 40.6315H154.924V46.3125H151.656Z" fill="#1A5FED"/>
<path d="M233.897 39.4102V29.6102H238.237C240.701 29.6102 241.793 30.2682 241.793 31.8502C241.793 33.4322 240.883 34.0902 238.825 34.0902V34.2162C240.939 34.2162 242.031 34.9302 242.031 36.6102C242.031 38.2902 240.925 39.4102 238.237 39.4102H233.897ZM237.425 36.1062H237.929C238.307 36.1062 238.573 35.8962 238.573 35.4202C238.573 34.8882 238.237 34.7622 237.887 34.7622H237.425V36.1062ZM237.425 33.8102H237.887C238.307 33.8102 238.489 33.5862 238.489 33.3622C238.489 33.1382 238.321 32.9142 238.027 32.9142H237.425V33.8102ZM246.977 39.6202C243.995 39.6202 242.399 38.0242 242.399 34.4962C242.399 30.9682 243.995 29.3862 246.977 29.3862C249.959 29.3862 251.555 30.9682 251.555 34.4962C251.555 38.0242 249.959 39.6202 246.977 39.6202ZM246.207 34.4962C246.207 35.6582 246.459 36.3162 246.977 36.3162C247.495 36.3162 247.747 35.6582 247.747 34.4962C247.747 33.3482 247.495 32.6902 246.977 32.6902C246.459 32.6902 246.207 33.3482 246.207 34.4962ZM252.026 39.4102V29.6102H255.414L257.066 33.5302H257.206V29.6102H259.614V39.4102H256.226L254.546 35.2242H254.434V39.4102H252.026ZM264.669 39.6202C261.687 39.6202 260.091 38.0242 260.091 34.4962C260.091 30.9682 261.687 29.3862 264.669 29.3862C267.651 29.3862 269.247 30.9682 269.247 34.4962C269.247 38.0242 267.651 39.6202 264.669 39.6202ZM263.899 34.4962C263.899 35.6582 264.151 36.3162 264.669 36.3162C265.187 36.3162 265.439 35.6582 265.439 34.4962C265.439 33.3482 265.187 32.6902 264.669 32.6902C264.151 32.6902 263.899 33.3482 263.899 34.4962ZM272.52 39.4102V29.6102H276.426C278.946 29.6102 280.962 30.8142 280.962 34.3562C280.962 37.9682 278.876 39.4102 276.426 39.4102H272.52ZM276.048 36.1062H276.146C276.888 36.1062 277.154 35.3222 277.154 34.5382C277.154 33.8662 276.958 33.1942 276.146 33.1942H276.048V36.1062ZM281.434 39.4102V29.6102H287.664V33.1942H284.962V34.2302H287.524V35.0702H284.962V36.1062H287.664V39.4102H281.434Z" fill="#1A5FED"/>
<path d="M232.1 53.998V42.098H236.214L238.22 46.858H238.39V42.098H241.314V53.998H237.2L235.16 48.915H235.024V53.998H232.1ZM241.994 53.998V42.098H249.559V46.45H246.278V47.708H249.389V48.728H246.278V49.986H249.559V53.998H241.994ZM252.285 53.998V46.45H250.109V42.098H258.745V46.45H256.569V53.998H252.285ZM259.293 53.998V42.098H266.858V46.45H263.577V47.368H266.688V49.68H263.577V53.998H259.293ZM267.361 53.998V42.098H271.645V49.646H274.756V53.998H267.361ZM275.363 53.998V42.098H279.647V53.998H275.363ZM280.123 53.998C280.361 51.992 280.735 49.697 281.245 48.048C280.735 46.399 280.361 44.104 280.123 42.098H284.577C284.662 43.747 284.883 46.042 285.053 46.518H285.206C285.376 46.042 285.597 43.747 285.682 42.098H290.102C289.864 44.104 289.49 46.399 288.98 48.048C289.49 49.697 289.864 51.992 290.102 53.998H285.682C285.597 52.349 285.376 50.054 285.206 49.578H285.053C284.883 50.054 284.662 52.349 284.577 53.998H280.123Z" fill="#1A5FED"/>
<path d="M75.5096 23.0663C78.0685 28.2321 79.3748 33.6895 79.565 39.0991C79.5678 39.1442 79.5777 39.1738 79.5791 39.2231C79.8524 46.6533 81.37 53.9918 81.525 60.6132C81.6786 67.236 77.6373 71.4717 77.6373 71.4717C77.6373 71.4717 74.2119 76.219 67.6737 77.2772C61.571 78.265 54.6369 78.2128 47.7591 79.0851C30.8261 82.3683 13.1196 74.1546 5.09193 57.95C-4.54057 38.5044 3.41377 14.9316 22.8591 5.29901C42.3045 -4.33358 65.8771 3.62078 75.5096 23.0663Z" stroke="#125CF7" stroke-width="1.437"/>
<path d="M77.0622 42.2061C77.8513 22.9636 62.8938 6.72527 43.6514 5.93619C24.4103 5.14568 8.1706 20.1046 7.3815 39.347C6.59101 58.5881 21.5499 74.8278 40.7923 75.6169C60.0334 76.406 76.2731 61.4485 77.0622 42.2061Z" stroke="#125CF7" stroke-width="1.582"/>
<path d="M185.273 23.0663C187.832 28.2321 189.138 33.6895 189.329 39.0991C189.332 39.1442 189.341 39.1738 189.343 39.2231C189.616 46.6533 191.134 53.9918 191.289 60.6132C191.442 67.236 187.401 71.4717 187.401 71.4717C187.401 71.4717 183.976 76.219 177.437 77.2772C171.335 78.265 164.401 78.2128 157.523 79.0851C140.59 82.3683 122.883 74.1546 114.856 57.95C105.223 38.5044 113.177 14.9316 132.623 5.29901C152.068 -4.33358 175.641 3.62078 185.273 23.0663Z" stroke="#125CF7" stroke-width="1.437"/>
<path d="M115.231 42.2064C114.442 22.9637 129.401 6.72528 148.643 5.93619C167.884 5.14567 184.124 20.1047 184.913 39.3473C185.704 58.5886 170.745 74.8284 151.502 75.6176C132.261 76.4067 116.021 61.4491 115.231 42.2064Z" stroke="#125CF7" stroke-width="1.582"/>
<path d="M295.029 23.0663C297.588 28.2321 298.894 33.6895 299.086 39.0991C299.087 39.1442 299.099 39.1738 299.099 39.2231C299.372 46.6533 300.891 53.9918 301.044 60.6132C301.199 67.236 297.157 71.4717 297.157 71.4717C297.157 71.4717 293.731 76.219 287.195 77.2772C281.09 78.265 274.156 78.2128 267.278 79.0851C250.345 82.3683 232.64 74.1546 224.611 57.95C214.979 38.5044 222.934 14.9316 242.378 5.29901C261.825 -4.33358 285.397 3.62078 295.029 23.0663Z" stroke="#125CF7" stroke-width="1.437"/>
<path d="M224.989 42.2064C224.2 22.9637 239.157 6.72528 258.4 5.93619C277.641 5.14567 293.881 20.1047 294.67 39.3473C295.46 58.5886 280.501 74.8284 261.259 75.6176C242.018 76.4067 225.778 61.4491 224.989 42.2064Z" stroke="#125CF7" stroke-width="1.582"/>
<path d="M95.127 47.724V42.46H89.8613V38.5354H95.127V33.2715H99.0527V38.5354H104.314V42.46H99.0527V47.724H95.127Z" fill="#9700FC" stroke="black"/>
<path d="M205.03 47.724V42.46H199.765V38.5354H205.03V33.2715H208.956V38.5354H214.218V42.46H208.956V47.724H205.03Z" fill="#9700FC" stroke="black"/>
</svg>
