<svg width="121" height="147" viewBox="0 0 121 147" fill="none" xmlns="http://www.w3.org/2000/svg">
<path d="M75.7909 50.752C75.7554 50.6935 75.7241 50.6476 75.6719 50.6017C75.6239 50.5599 75.5696 50.5223 75.5132 50.491C75.4861 50.4764 75.4569 50.4618 75.4256 50.4472C75.3984 50.4346 75.3671 50.4221 75.3379 50.4138C75.2585 50.3866 75.1771 50.3741 75.102 50.3845C73.9286 50.5474 72.4943 50.8292 70.8449 51.2217C69.9555 51.4347 69.0034 51.679 67.9929 51.9525C62.5124 53.4411 55.345 55.8212 47.4844 58.8235C47.0709 58.9822 46.6555 59.1408 46.2379 59.3037C45.4028 59.6252 44.5593 59.9551 43.7117 60.2912L43.6887 60.2996L43.6365 60.3204C43.1396 60.5188 42.6448 60.7171 42.15 60.9155C41.6593 61.1117 41.1708 61.3101 40.6801 61.5084L39.2333 62.1034C38.7573 62.2997 38.2833 62.498 37.8073 62.6964C37.3397 62.8926 36.874 63.0889 36.4064 63.2893C35.9471 63.4835 35.4878 63.6797 35.0284 63.8781C34.5774 64.0722 34.1286 64.2685 33.6776 64.4648C33.235 64.6568 32.7945 64.851 32.3539 65.0473C31.9217 65.2393 31.4895 65.4314 31.0574 65.6256C30.6356 65.8156 30.2139 66.0076 29.7922 66.1997C29.3787 66.3876 28.9675 66.5776 28.5562 66.7676C28.1553 66.9534 27.7544 67.1413 27.3557 67.3292C26.9653 67.513 26.5749 67.6988 26.1865 67.8846C25.8065 68.0662 25.4286 68.2479 25.0528 68.4316C24.6854 68.6112 24.32 68.7907 23.9546 68.9703C23.6018 69.1456 23.2469 69.3231 22.8941 69.5006C22.5537 69.6718 22.2134 69.8451 21.8731 70.0204C21.5453 70.1895 21.2196 70.3587 20.8939 70.5299C20.5786 70.6948 20.2655 70.8597 19.9544 71.0289C19.6537 71.1896 19.3552 71.3504 19.0566 71.5153C18.7706 71.6719 18.4867 71.8285 18.2048 71.9892C17.9333 72.1417 17.6641 72.2941 17.3968 72.4507C17.1421 72.5968 16.8874 72.745 16.6348 72.8974C16.3967 73.0394 16.1587 73.1835 15.9228 73.3296C15.6994 73.4674 15.4781 73.6052 15.2589 73.7472C15.0522 73.8787 14.8476 74.0123 14.6451 74.1481C14.4571 74.2733 14.2693 74.4028 14.0835 74.5322C13.9728 74.6095 13.8621 74.6888 13.7912 74.8078C13.622 75.0834 13.7306 75.3444 13.7306 75.3444C13.7389 75.3819 13.7515 75.4174 13.764 75.4529L14.0521 76.1795C14.1356 76.3904 14.286 76.4071 14.5135 76.4175C14.6952 76.4259 14.8705 76.3883 15.0501 76.359C15.3215 76.3131 15.5951 76.2818 15.8686 76.2484C15.9123 76.2421 15.9708 76.2338 16.0021 76.2755L49.6181 142.574C49.6745 142.685 49.7767 142.764 49.8978 142.785C50.0837 142.816 50.426 142.827 51.0462 142.741C51.0879 142.737 51.1276 142.739 51.1672 142.747C51.1923 142.752 51.2152 142.758 51.2382 142.768C51.2612 142.779 51.2821 142.789 51.3009 142.804L51.305 142.806C51.3217 142.818 51.3363 142.831 51.3509 142.848L51.3635 142.858C51.3781 142.875 51.3927 142.894 51.4032 142.912L52.7916 145.238C52.8124 145.272 52.8375 145.299 52.8667 145.324C52.9189 145.366 52.9816 145.395 53.0505 145.401L53.063 145.403L53.587 145.397C55.4264 145.307 57.6958 144.965 60.2659 144.395C60.9069 144.251 61.5687 144.094 62.2473 143.923C62.4728 143.867 62.7024 143.808 62.9321 143.747C66.6067 142.785 70.7468 141.428 75.0497 139.722L75.0936 139.705L75.1374 139.687C79.9791 137.768 84.3677 135.672 87.9483 133.638C88.1466 133.526 88.3429 133.413 88.5371 133.3C88.9233 133.075 89.3012 132.851 89.6687 132.628C91.6854 131.402 93.3766 130.214 94.6627 129.12L95.0469 128.765L95.0573 128.755C95.097 128.709 95.122 128.653 95.1325 128.594C95.1408 128.55 95.1429 128.504 95.1325 128.458L94.5521 125.813C94.5458 125.792 94.5437 125.769 94.5437 125.746V125.73C94.5437 125.709 94.5458 125.688 94.55 125.669L94.5521 125.665C94.5562 125.642 94.5646 125.619 94.573 125.596L94.575 125.594C94.5834 125.573 94.5959 125.552 94.6105 125.531C94.6334 125.498 94.6606 125.469 94.6961 125.446C95.2056 125.082 95.4456 124.838 95.5604 124.688C95.6356 124.592 95.6544 124.462 95.621 124.345L74.6969 53.0152C74.6531 52.8649 74.6865 52.7062 74.7804 52.5872L74.9141 52.4974L74.9182 52.4911C75.033 52.393 75.1771 52.3011 75.3254 52.2051C75.5132 52.0694 75.6907 51.9379 75.8556 51.8084C76.0122 51.6456 76.1104 51.5328 76.0269 51.322L75.8411 50.8543C75.8264 50.8188 75.8118 50.7854 75.7909 50.752Z" stroke="#125CF7" stroke-width="2"/>
<path d="M60.9428 40.6334C65.5694 37.0779 68.9119 34.1863 70.3505 32.4534L70.0144 31.9439L69.8118 31.6391C69.8118 31.6391 69.7597 31.6141 69.6677 31.5911C69.578 31.566 69.4485 31.5431 69.2878 31.541L68.1875 31.1756L66.0246 27.9082C66.0246 27.9082 65.7239 27.3153 64.8511 27.5449C64.8511 27.5449 63.0035 27.8852 61.6672 28.6786L59.876 25.977C59.876 25.977 59.5377 25.5009 58.8215 25.7912L57.7693 26.4885L52.0049 18.1539C52.0049 18.1539 44.6996 7.0363 35.1959 6.75236L33.8805 4.76894C33.8805 4.76894 33.4024 4.09248 29.0744 6.46424C29.0744 6.46424 26.4688 7.89022 23.337 9.75255C22.3475 10.333 21.2576 10.999 20.0968 11.7297C19.7627 11.9406 19.4308 12.1515 19.1009 12.3644C18.7669 12.5795 18.4266 12.7987 18.0841 13.0221L17.6708 13.3039C17.4056 13.4814 17.1446 13.6589 16.892 13.8342L16.4744 14.1182C16.1529 14.3186 15.8251 14.5274 15.4911 14.7445C15.4159 14.7946 15.3407 14.8468 15.2655 14.8969C15.1152 14.9951 14.9649 15.0953 14.8146 15.1955L14.7979 15.2059L14.7332 15.2498C9.99382 18.4065 4.53209 22.7304 4.53209 22.7304C0.663388 25.7912 1.09974 26.4968 1.09974 26.4968L1.14357 26.5657L1.16028 26.5574L2.42964 28.4719C-1.01105 37.3326 6.38191 48.3918 6.38191 48.3918L11.8123 56.9476L10.7621 57.645C10.2152 58.194 10.522 58.6889 10.522 58.6889L12.3113 61.3905C11.0607 62.3133 10.0293 63.8833 10.0293 63.8833C9.47819 64.5974 9.90614 65.1047 9.90614 65.1047L12.0712 68.3701L11.9815 69.5246C11.8958 69.7313 11.875 69.8984 11.8687 69.9839L11.8666 69.9965V70.0194V70.0278V70.0466L12.4074 70.8608C16.4848 69.6311 27.0451 63.7393 39.3464 55.7471C39.7577 55.4799 40.1711 55.2106 40.5845 54.9392L40.6054 54.9266C41.2338 54.5153 41.8664 54.0998 42.5011 53.6781L42.5387 53.6531L42.6514 53.5779L42.8018 53.4777C43.0148 53.3378 43.2276 53.1958 43.4386 53.0559C43.6515 52.914 43.8623 52.7741 44.0711 52.6321C44.2821 52.4922 44.4908 52.3523 44.7016 52.2125C45.1171 51.9327 45.5326 51.6529 45.9439 51.3732C46.1506 51.2354 46.3552 51.0955 46.5598 50.9577C51.2387 47.78 55.5124 44.7318 59.1368 42.0051C59.3331 41.8569 59.5293 41.7108 59.7214 41.5646C60.139 41.2493 60.5461 40.9383 60.9428 40.6334Z" stroke="#125CF7" stroke-width="2"/>
<path d="M71.83 53.3717C72.2581 54.4532 60.4285 60.155 45.4088 66.1074C30.3869 72.0598 17.8641 76.0078 17.4362 74.9263C17.0061 73.8448 28.8356 68.143 43.8575 62.1907C58.8773 56.2383 71.4021 52.2902 71.83 53.3717Z" fill="#125CF7"/>
<path d="M85.2963 37.7683H108.398C109.11 37.7683 109.688 37.19 109.688 36.4759C109.688 35.7619 109.11 35.1836 108.398 35.1836H86.5886V13.3763C86.5886 12.6623 86.0103 12.084 85.2963 12.084C84.5822 12.084 84.0039 12.6623 84.0039 13.3763V36.4759C84.0039 37.19 84.5822 37.7683 85.2963 37.7683Z" fill="#125CF7" stroke="#125CF7" stroke-width="2"/>
<path d="M95.5863 27.4812H118.688C119.4 27.4812 119.978 26.9029 119.978 26.1888C119.978 25.4748 119.4 24.8965 118.688 24.8965H96.8787V3.08923C96.8787 2.3752 96.3003 1.79688 95.5863 1.79688C94.8723 1.79688 94.2939 2.3752 94.2939 3.08923V26.1888C94.2939 26.9029 94.8723 27.4812 95.5863 27.4812Z" fill="#125CF7" stroke="#125CF7" stroke-width="2"/>
</svg>
