<svg width="57" height="62" viewBox="0 0 57 62" fill="none" xmlns="http://www.w3.org/2000/svg">
<path d="M28.3109 61.084C25.608 61.084 22.4864 60.4511 19.2834 59.2536C16.2074 58.1036 13.137 56.4691 10.4041 54.5268C7.61059 52.5413 5.27042 50.3017 3.63654 48.05C2.775 46.8627 2.10942 45.6729 1.65829 44.5138C1.18454 43.2965 0.944336 42.1042 0.944336 40.97C0.944336 38.7574 1.47445 36.7185 2.51994 34.91C3.60934 33.0255 5.25923 31.3925 7.42377 30.0562C9.69903 28.6516 12.5581 27.5671 15.9214 26.8328C19.4737 26.0573 23.6312 25.6641 28.2784 25.6641C32.926 25.6641 37.0868 26.0573 40.6454 26.8328C44.0156 27.5673 46.8822 28.6518 49.1656 30.0562C51.3392 31.3931 52.9968 33.0262 54.0921 34.91C55.1445 36.7199 55.678 38.7588 55.678 40.97C55.678 42.1041 55.4374 43.2964 54.9628 44.5138C54.5109 45.6728 53.8442 46.8626 52.9813 48.05C51.3454 50.3011 49.0025 52.5407 46.206 54.5268C43.4715 56.4687 40.4006 58.1032 37.325 59.2536C34.1236 60.4511 31.0066 61.084 28.3109 61.084ZM28.293 32.4985C25.7003 32.4985 23.3807 32.7193 21.3988 33.1546C19.5224 33.5667 17.9273 34.1755 16.6579 34.9639C15.4503 35.714 14.5298 36.6306 13.9219 37.6883C13.3386 38.7035 13.0429 39.8478 13.0429 41.0897C13.0429 42.3446 13.5482 43.6815 14.5449 45.0633C15.4564 46.3272 16.762 47.5842 18.3206 48.6986C19.8453 49.7888 21.5583 50.7062 23.2744 51.3517C25.0614 52.0239 26.803 52.3792 28.3109 52.3792C29.8148 52.3792 31.5538 52.0239 33.34 51.3517C35.0559 50.706 36.7692 49.7886 38.2948 48.6986C39.8551 47.5838 41.1622 46.3268 42.0749 45.0633C43.0733 43.6813 43.5795 42.3443 43.5795 41.0897C43.5795 39.8486 43.2818 38.7042 42.6947 37.6883C42.0837 36.631 41.1589 35.7143 39.9463 34.9639C38.6723 34.1756 37.073 33.5669 35.1928 33.1546C33.2074 32.7193 30.8859 32.4985 28.293 32.4985ZM27.9082 50.4948L27.9065 50.4946L27.2087 50.4344L24.4899 48.1332L24.1034 48.3714L26.3817 50.2958L25.5552 50.1169L23.4976 48.3714L23.3503 48.8275L24.5813 49.8592C23.1836 49.3816 22.2771 48.9306 21.2373 48.3909L21.6602 48.1925L22.4503 48.4308L23.4242 47.5775L24.2322 47.6966L26.1065 46.4266L26.6394 45.058L27.4295 44.4823L27.7786 43.7088L28.293 43.1925L29.2299 43.4706L30.1668 44.5023L30.9388 46.0498L31.5267 46.4864L32.2798 47.3392L32.9045 47.1214L33.8784 47.895L35.3482 48.4108L34.7239 48.7283L33.6761 48.3311L32.978 47.7958L32.6289 48.5499L31.1776 46.9226L30.4244 46.3474L29.7627 44.76L28.9911 43.8872L28.4398 43.7088L29.0646 44.76L28.7889 45.514L28.9911 46.4466L28.6236 46.7441L29.0646 47.1214L29.083 47.6767L28.3109 47.0417L27.9988 47.2999L29.6344 48.6884L30.0938 49.6409L27.6867 47.5775L27.3925 47.8551L30.2587 50.2958L29.7263 50.395L27.0799 48.1726L26.7862 48.4706L29.1564 50.4543L28.5504 50.4937L26.2718 48.5499L25.2246 48.2324L27.9069 50.4937L27.9082 50.4948ZM23.9734 44.6679C23.9147 44.6679 23.8534 44.6523 23.7913 44.6214C23.4744 44.4613 23.3138 44.2009 23.3138 43.8474C23.3138 43.6239 23.6778 42.9339 24.1385 42.0604C24.4015 41.5618 24.6996 40.9967 24.9703 40.4396C23.6675 42.2261 22.8521 42.419 22.562 42.419C22.4633 42.419 22.3761 42.399 22.303 42.3596C22.0187 42.2059 21.8241 41.8943 21.8071 41.5656C21.8033 41.478 21.8062 41.3845 21.8158 41.2798C21.1252 42.2209 20.4189 42.7605 19.8788 42.7605C19.7557 42.7605 19.6442 42.7325 19.5472 42.6771C19.2906 42.5276 19.1247 42.2627 19.1247 42.0022C19.1247 41.6666 19.2627 41.2618 19.3829 40.9467C18.2087 42.3393 17.3055 42.9876 16.5415 42.9877C16.3435 42.9877 16.1493 42.9432 15.9644 42.8555C15.6648 42.7124 15.4213 42.4062 15.2786 41.9931C14.9942 41.1693 15.1437 40.0664 15.6888 38.9669C16.1729 37.9924 16.9044 37.156 17.8041 36.5482C18.656 35.9728 19.5942 35.6559 20.446 35.6559C20.7933 35.6559 21.1215 35.7084 21.4215 35.812C22.0802 36.0357 22.3764 36.5153 22.3764 36.7844C22.3764 37.0436 22.2035 37.2041 22.0434 37.2041C21.9746 37.2041 21.9119 37.1756 21.862 37.1218C21.7158 36.9635 21.4933 36.8433 21.2008 36.7644C20.9677 36.6981 20.7238 36.6644 20.476 36.6644C19.7793 36.6644 19.0558 36.9241 18.3839 37.4153C17.7491 37.8793 17.2094 38.5219 16.8644 39.2246C16.4588 40.065 16.3308 40.8181 16.5133 41.2907C16.5849 41.4763 16.7001 41.6056 16.8464 41.6648C16.9107 41.6919 16.9831 41.7056 17.0615 41.7056C17.4499 41.7056 17.9762 41.3763 18.5434 40.7784C19.1951 40.0914 19.879 39.074 20.5211 37.836C20.6805 37.5096 20.7917 37.3994 20.9616 37.3994C21.1922 37.3994 21.5129 37.7995 21.5129 38.1934C21.5129 38.3674 21.3384 38.7014 21.1175 39.1244C20.961 39.424 20.7838 39.7633 20.6315 40.1173C20.3467 40.7908 20.2689 41.0839 20.334 41.2375C20.3589 41.2961 20.4066 41.3374 20.4841 41.3673C20.5055 41.3756 20.5291 41.3798 20.5544 41.3798C20.8581 41.3798 21.4399 40.7844 22.2836 39.6102C22.4273 39.2269 22.5977 38.8006 22.7949 38.307C22.8727 38.1123 22.9538 37.9095 23.0381 37.697C23.9231 35.4738 24.7168 34.3931 25.4648 34.3931C25.5376 34.3931 25.6114 34.4033 25.684 34.4234C25.94 34.4962 26.1276 34.6543 26.2264 34.8806C26.3922 35.2605 26.3106 35.8097 25.9966 36.427C25.3881 37.619 24.4567 38.8266 23.0654 40.2276C22.8815 40.9122 23.032 41.0675 23.2034 41.129C23.2135 41.1329 23.2257 41.1349 23.2398 41.1349C23.5999 41.1349 25.0217 40.0065 26.0248 37.9148C26.1683 37.5124 26.2823 37.152 26.3637 36.8437C26.4036 36.6996 26.493 36.6234 26.6222 36.6234C26.6617 36.6234 26.7047 36.6308 26.7498 36.6453C27.0232 36.772 27.2457 37.1369 27.2457 37.4587C27.2457 37.5536 27.1094 37.9265 26.829 38.5989C27.6082 37.5476 28.2507 36.969 28.6372 36.969C28.6714 36.969 28.704 36.9736 28.7339 36.9827C28.9981 37.0632 29.2008 37.2469 29.3203 37.514C29.5601 38.0502 29.4496 38.8691 29.0091 39.8197C28.9844 39.8739 28.9584 39.9254 28.9333 39.9751L28.909 40.0234C29.5678 39.3986 30.1488 38.6512 30.5022 37.9722C30.6307 37.6804 30.703 37.4794 30.7366 37.3202C30.7657 37.1791 30.8265 37.1105 30.9223 37.1105C30.9589 37.1105 31.0015 37.1209 31.0487 37.1412C31.4 37.3073 31.5636 37.5469 31.5636 37.8953C31.5636 38.0652 31.3978 38.3784 31.1879 38.7749C31.0811 38.9767 30.9601 39.2053 30.847 39.4429C30.7781 39.5804 30.7092 39.7126 30.6426 39.8404C30.3591 40.3846 30.1351 40.8144 30.3141 40.9112C30.3208 40.9149 30.3294 40.9167 30.3395 40.9167C30.5912 40.9167 31.9008 39.7517 32.7981 37.7305C32.8668 37.5389 32.9164 37.3832 32.9415 37.2803C32.9835 37.1285 33.0579 37.0516 33.1626 37.0516C33.2008 37.0516 33.2439 37.0618 33.2906 37.0819C33.6057 37.2098 33.7865 37.4412 33.7865 37.7169C33.7865 37.8937 33.6068 38.3182 33.4126 38.7506C34.3855 37.5853 35.333 37.1019 35.6238 37.1019C36.0086 37.1019 36.359 37.5178 36.359 37.9746C36.359 38.1321 35.9903 38.7777 35.5999 39.4613C35.1661 40.2208 34.7176 41.0062 34.8153 41.0697C34.8295 41.0789 34.8465 41.0836 34.866 41.0836C35.0229 41.0836 35.431 40.7821 36.4849 39.3457C36.522 39.2809 36.5511 39.2314 36.5792 39.1852C37.3091 38.0345 38.0213 37.4986 38.8206 37.4986C39.3134 37.4986 39.6357 37.8391 39.7619 38.1307C39.7973 38.0489 39.8361 37.9581 39.8868 37.836C39.9555 37.6692 40.0511 37.5847 40.1711 37.5847C40.214 37.5847 40.2605 37.5958 40.3093 37.6177C40.5352 37.7194 40.7316 38.0377 40.7134 38.2726C40.7005 38.4517 40.2963 39.2105 39.9396 39.8799C39.7882 40.1641 39.6454 40.4322 39.5557 40.6137C39.2313 41.2929 39.1764 41.7676 39.4089 41.8836C39.4388 41.8985 39.473 41.906 39.5106 41.906C39.773 41.906 40.2046 41.5434 40.6949 40.9112C40.7753 40.8099 40.8596 40.7564 40.9387 40.7564C40.9757 40.7564 41.0112 40.7684 41.044 40.7921C41.179 40.8961 41.2772 41.2181 41.1174 41.4665C40.6192 42.2167 39.7293 42.9763 38.9924 42.9764C38.872 42.9764 38.7586 42.9557 38.6553 42.9148C38.3818 42.8099 38.1594 42.4985 38.1594 42.2205C38.1594 42.0084 38.1967 41.7749 38.2736 41.5068C37.5602 42.2443 37.0163 42.618 36.6578 42.618C36.6101 42.618 36.5652 42.6112 36.5243 42.5978C36.1134 42.474 35.8911 42.1688 35.8446 41.6648C35.8202 41.4834 35.8264 41.2688 35.8631 41.0269C35.1462 41.8984 34.6495 42.2868 34.2537 42.2869C34.1949 42.2869 34.1366 42.278 34.0807 42.2604C33.7631 42.1653 33.5658 41.861 33.5658 41.4665C33.5658 41.158 34.0578 40.304 34.492 39.5506C34.8963 38.849 35.2455 38.243 35.181 38.1314C35.1742 38.1196 35.1625 38.1136 35.1464 38.1136C34.8973 38.1136 33.5958 38.8814 32.2589 41.3196C32.1456 41.5969 32.0823 41.795 32.0595 41.9429C32.0294 42.0882 31.9384 42.1784 31.8218 42.1784C31.792 42.1784 31.7608 42.1727 31.7289 42.1612C31.3629 42.0574 31.2325 41.683 31.2325 41.3673C31.2325 41.2415 31.3283 40.9791 31.534 40.5412C30.7596 41.5716 30.1276 42.0938 29.6564 42.0938C29.5905 42.0938 29.5273 42.0831 29.4686 42.062C29.158 41.9279 28.9727 41.6534 28.9727 41.3279C28.9727 41.1571 29.1641 40.7358 29.4516 40.1557C28.5619 41.1546 27.6591 41.8199 26.9754 41.9818C26.8733 42.0078 26.7744 42.021 26.6812 42.021C26.6416 42.021 26.6025 42.0186 26.565 42.0139L26.5524 42.012L26.5397 42.01L26.5264 42.0078C26.5056 42.0042 26.4844 42.0006 26.4644 41.9954C26.4264 41.9858 26.3935 41.975 26.3637 41.9624C26.1741 41.8885 25.9617 41.6604 25.9227 41.3673C25.9018 41.2661 25.9232 41.1577 25.9773 41.0913C26.0151 41.0448 26.067 41.0203 26.1273 41.0203C26.1498 41.0203 26.1737 41.0236 26.1984 41.0303C26.2728 41.0499 26.3508 41.0598 26.43 41.0598C27.0291 41.0598 27.7196 40.4847 28.1092 39.6612C28.4201 39.0039 28.5418 38.3922 28.4191 38.103C28.3865 38.026 28.3378 37.9761 28.2745 37.9547C28.2597 37.9496 28.2432 37.947 28.2256 37.947C27.8252 37.947 26.6659 39.3145 25.7137 41.1446C25.0701 42.5337 24.4541 43.8876 24.3061 44.3832C24.2508 44.5615 24.1264 44.6679 23.9734 44.6679ZM38.8206 38.3514C38.5284 38.3514 37.9347 38.5318 37.2409 39.7405C36.8231 40.4561 36.7946 41.0298 36.8973 41.3036C36.9373 41.4104 36.999 41.4805 37.0756 41.5063C37.0955 41.5128 37.1179 41.516 37.1422 41.516C37.5153 41.516 38.4719 40.7795 39.4507 38.8031L39.4496 38.8004C39.4481 38.7966 39.4466 38.7928 39.4454 38.7885C39.386 38.5311 39.1291 38.3514 38.8206 38.3514ZM25.3486 35.5874C25.0915 35.5875 24.7124 36.3273 23.7733 38.4112C23.705 38.5601 23.6444 38.6983 23.5832 38.8386C24.5794 37.6861 24.9881 36.944 25.3165 36.3478C25.4796 36.0585 25.541 35.8158 25.4849 35.6817C25.4657 35.6358 25.4328 35.6053 25.3899 35.5937C25.3763 35.5895 25.3624 35.5874 25.3486 35.5874ZM31.7699 36.525C31.7042 36.525 31.6471 36.5122 31.6001 36.4868C31.48 36.4436 31.3973 36.2497 31.379 35.9684C31.3533 35.5745 31.4633 35.0966 31.692 34.9786C31.7233 34.9722 31.7561 34.9689 31.7897 34.9689C32.1585 34.9689 32.7028 35.34 32.7028 35.6734C32.7028 36.127 32.1213 36.525 31.7699 36.525Z" fill="#350062" stroke="black"/>
<path d="M44.2678 35.2514C43.8497 34.9165 43.4057 34.5713 42.9764 34.2374C40.9184 32.637 38.7911 30.9827 38.1023 29.4331V16.3953C38.1023 11.0109 33.6959 6.63047 28.2796 6.63047C22.8637 6.63047 18.4575 11.0109 18.4575 16.3953V21.5674H12.291V16.3953C12.291 14.2494 12.7137 12.1677 13.5475 10.2081C14.3528 8.31528 15.5056 6.61538 16.9739 5.15558C18.4423 3.6958 20.1522 2.5497 22.0561 1.74912C24.0273 0.920264 26.1212 0.5 28.2796 0.5C30.4382 0.5 32.5322 0.920264 34.5034 1.74912C36.4074 2.5497 38.1173 3.6958 39.5857 5.15558C41.0541 6.61537 42.207 8.31527 43.0123 10.2081C43.846 12.1677 44.2687 14.2494 44.2687 16.3953L44.2678 35.2514Z" fill="#350062"/>
</svg>
