<svg width="103" height="129" viewBox="0 0 103 129" fill="none" xmlns="http://www.w3.org/2000/svg">
<path d="M22.0435 9.56969C22.5894 5.50536 26.9391 1.43891 30.967 0.96875H72.5977C78.0647 1.87968 82.0355 6.75794 81.524 12.3577C87.8661 5.35419 99.2778 11.9739 96.135 20.9969C95.5774 22.5978 90.4602 28.876 89.0667 30.1264C87.1039 31.8877 84.5442 30.1944 85.1401 28.0808C85.7292 25.9923 90.7735 22.1482 91.7556 19.8042C93.7467 15.56 88.473 11.9587 85.1075 15.0148C84.6926 15.3915 81.5802 19.1223 81.5275 19.4002L81.5498 36.4934C89.6452 36.9505 92.8917 46.1975 87.1018 51.7884C90.5511 54.1226 92.3861 57.8095 91.1643 61.9627C90.3168 64.8456 87.5231 66.6742 86.0351 69.1762C90.338 70.5644 92.2346 75.5056 90.8248 79.679C90.0729 81.9059 85.7217 87.107 83.6598 88.1797C83.1348 88.4531 81.6206 88.7717 81.548 88.8556C81.3838 89.0457 81.5965 92.9564 81.519 93.7392C81.0573 98.3898 76.9427 102.327 72.3583 102.9L49.0001 102.897C47.0225 102.181 46.9563 99.6494 48.7834 98.7088L71.0006 98.6213C76.4917 98.051 77.6947 93.7402 77.2422 88.8588C73.2469 87.8576 70.7298 84.2705 70.8887 80.1888C71.0342 76.4474 73.8516 73.9804 76.2014 71.4186C76.3072 70.9471 74.7994 70.2461 74.3491 69.8474C71.971 67.7441 70.8724 65.3848 71.155 62.1323C71.4768 58.4287 74.485 56.4451 76.4262 53.6429C70.2175 49.5205 71.1114 41.2753 77.2776 37.6614L77.2826 11.9502C76.9512 7.72906 74.7318 5.50996 70.5117 5.1793C58.3428 5.9125 45.094 4.23579 33.0533 5.1793C28.8311 5.50996 26.6127 7.73189 26.2824 11.9502L26.287 68.9931C34.9874 75.5892 40.9235 85.6587 42.671 96.4805C43.0364 98.7438 44.2985 103.745 40.2894 102.847C38.2608 102.392 38.5016 98.0736 38.1178 96.2542C36.1249 86.8125 31.9324 80.0762 24.9671 73.5588C23.6388 72.3154 22.2283 72.274 22.0307 70.1225C21.4059 63.3194 23.568 47.8926 20.4032 42.5421C18.9581 40.0989 16.317 39.1501 13.5452 39.4404L13.5424 58.9538C12.0654 68.2121 8.06263 77.3031 10.1716 86.7611C11.4157 92.3382 14.5479 98.514 15.5498 103.95C15.6935 104.729 15.8252 105.537 15.4637 106.281C11.6055 112.54 9.02844 120.939 5.10183 126.985C3.34617 129.688 0.243753 128.454 0.862608 125.398L11.0893 104.854C9.56445 97.8471 5.52278 90.2746 5.03881 83.1316C4.46846 74.7154 8.01625 65.8989 9.29574 57.6279L9.35486 36.4449C9.92521 33.8926 16.8753 34.9898 18.7743 35.6742C19.9366 36.093 21.0589 36.8478 22.0435 37.5828V9.56969ZM80.3864 41.0969C79.4564 41.2892 78.2569 42.4256 77.6947 43.1825C73.7122 48.5416 81.5123 53.2835 84.8777 47.4448C86.8564 44.0117 84.2493 40.2986 80.3864 41.0969ZM81.7144 55.435C80.3471 55.7186 76.0084 60.6386 75.7408 61.9394C74.8323 66.3556 79.2369 68.8572 82.5889 66.1325C83.3299 65.5296 85.6053 62.828 86.1448 61.9882C88.4567 58.3916 85.7239 54.603 81.7144 55.435ZM81.4493 72.9591C80.1393 73.2288 75.7326 78.2264 75.476 79.4637C74.6422 83.4813 78.7097 86.132 82.0338 83.8988C82.9185 83.3047 86.393 79.1299 86.6493 78.1602C87.5716 74.669 84.8689 72.2545 81.4493 72.9591Z" fill="#1A5EED"/>
<path d="M53.1522 119.94C52.184 121.541 49.8643 128.056 48.1915 128.387C45.8364 128.854 44.9977 127.075 45.6163 125.015C46.0114 123.7 48.7866 118.319 49.6059 117.057C51.0373 114.853 53.5116 115.669 55.8641 115.349C59.6701 114.833 62.3809 113.796 64.9289 110.872C65.5789 110.126 67.0679 107.565 67.7187 107.291C69.7367 106.44 71.3904 108.047 70.8349 110.142C70.7329 110.526 69.5933 112.085 69.2619 112.55C65.4564 117.892 59.574 119.965 53.1522 119.94Z" fill="#1A5EED"/>
<path d="M44.5354 9.49223L58.8133 9.44336C60.8717 10.1904 60.8635 12.9388 58.8133 13.6801H44.7521C42.7741 12.9646 42.7082 10.4325 44.5354 9.49223Z" fill="#1A5EED"/>
<path d="M48.783 90.2123C49.3342 90.0516 54.2291 90.0516 54.7807 90.2123C56.3052 90.657 56.564 93.3406 55.1139 94.1535C54.5021 94.4968 49.5544 94.5762 48.783 94.3514C47.0755 93.8536 47.0744 90.7104 48.783 90.2123Z" fill="#1A5EED"/>
<path d="M45.6828 46C45.6203 45.8087 45.5379 45.6373 45.4356 45.4858C45.3353 45.3324 45.215 45.2017 45.0748 45.0938C44.9366 44.9858 44.7794 44.9034 44.6032 44.8466C44.4271 44.7898 44.2339 44.7614 44.0237 44.7614C43.679 44.7614 43.3656 44.8504 43.0834 45.0284C42.8012 45.2064 42.5767 45.4688 42.4101 45.8153C42.2434 46.1619 42.1601 46.5871 42.1601 47.0909C42.1601 47.5947 42.2443 48.0199 42.4129 48.3665C42.5815 48.7131 42.8097 48.9754 43.0976 49.1534C43.3854 49.3314 43.7093 49.4205 44.0692 49.4205C44.4025 49.4205 44.6961 49.3494 44.9498 49.2074C45.2055 49.0634 45.4044 48.8608 45.5464 48.5994C45.6904 48.3362 45.7623 48.0265 45.7623 47.6705L45.9782 47.7159H44.2282V47.0909H46.4442V47.7159C46.4442 48.1951 46.3419 48.6117 46.1373 48.9659C45.9347 49.3201 45.6544 49.5947 45.2964 49.7898C44.9404 49.983 44.5313 50.0795 44.0692 50.0795C43.554 50.0795 43.1014 49.9583 42.7112 49.7159C42.3229 49.4735 42.0199 49.1288 41.8021 48.6818C41.5862 48.2348 41.4782 47.7045 41.4782 47.0909C41.4782 46.6307 41.5398 46.2169 41.6629 45.8494C41.7879 45.4801 41.964 45.1657 42.1913 44.9062C42.4186 44.6468 42.6875 44.4479 42.9981 44.3097C43.3087 44.1714 43.6506 44.1023 44.0237 44.1023C44.3305 44.1023 44.6165 44.1487 44.8817 44.2415C45.1487 44.3324 45.3864 44.4621 45.5947 44.6307C45.805 44.7973 45.9801 44.9972 46.1203 45.2301C46.2604 45.4612 46.357 45.7178 46.4101 46H45.6828ZM47.7098 50H46.9711L49.1075 44.1818H49.8348L51.9711 50H51.2325L49.4939 45.1023H49.4484L47.7098 50ZM47.9825 47.7273H50.9598V48.3523H47.9825V47.7273ZM57.491 44.1818V50H56.8092L53.6388 45.4318H53.5819V50H52.8774V44.1818H53.5592L56.741 48.7614H56.7979V44.1818H57.491ZM59.1395 50H58.4008L60.5372 44.1818H61.2645L63.4008 50H62.6622L60.9236 45.1023H60.8781L59.1395 50ZM59.4122 47.7273H62.3895V48.3523H59.4122V47.7273ZM64.697 47.4545L64.7425 46.2045L63.6856 46.875L63.4129 46.3977L64.5265 45.8182L63.4129 45.2386L63.6856 44.7614L64.7425 45.4318L64.697 44.1818H65.2425L65.197 45.4318L66.2538 44.7614L66.5265 45.2386L65.4129 45.8182L66.5265 46.3977L66.2538 46.875L65.197 46.2045L65.2425 47.4545H64.697Z" fill="#1A5FED"/>
<path d="M67.7801 40.4193C68.9496 42.78 69.5466 45.274 69.6335 47.7461C69.6348 47.7667 69.6393 47.7803 69.64 47.8028C69.7649 51.1984 70.4585 54.552 70.5293 57.578C70.5995 60.6045 68.7525 62.5403 68.7525 62.5403C68.7525 62.5403 67.187 64.7097 64.1989 65.1933C61.4098 65.6447 58.2408 65.6209 55.0975 66.0195C47.3587 67.5199 39.2664 63.7663 35.5977 56.3609C31.1954 47.4744 34.8307 36.7017 43.7177 32.2997C52.6046 27.8977 63.3778 31.5328 67.7801 40.4193Z" stroke="#125CF7"/>
<path d="M35.7695 49.1671C35.4089 40.3733 42.2448 32.9524 51.039 32.5918C59.8326 32.2305 67.2545 39.0667 67.6152 47.8605C67.9764 56.6537 61.1399 64.0752 52.3457 64.4358C43.5521 64.7964 36.1302 57.9609 35.7695 49.1671Z" stroke="#125CF7"/>
<path d="M102.396 69.701L96.8398 69.701L96.8398 75.5723" stroke="#1A5EED"/>
<path d="M36.5059 70.5938L30.9492 70.5937L30.9492 64.7225" stroke="#1A5EED"/>
<path d="M68.5029 26.5566H74.0596V32.4279" stroke="#1A5EED"/>
<path d="M68.5029 70.5939H74.0596V64.7227" stroke="#1A5EED"/>
</svg>
