<svg width="70" height="68" viewBox="0 0 70 68" fill="none" xmlns="http://www.w3.org/2000/svg">
<path d="M13.1173 67.2128C12.9204 67.2128 12.7485 67.2057 12.5908 67.1911L12.7641 65.3189C12.8906 65.3447 13.0257 65.3654 13.1659 65.3796L13.1876 65.3814C13.3316 65.3947 13.4841 65.4013 13.6522 65.4013H13.716C14.1385 65.3962 14.4709 65.3571 14.691 65.3312C14.7906 65.3195 14.8676 65.3105 14.9252 65.3072C15.7831 65.2346 16.6344 65.1483 17.4578 65.0649L17.8865 65.0216C18.1665 64.9936 18.4423 64.9665 18.7157 64.9396L19.058 64.9059C19.0608 64.9059 19.0679 64.9043 19.0684 64.9041C19.0854 64.9003 19.1118 64.8986 19.1481 64.8962C19.2865 64.8871 19.5745 64.8682 20.0471 64.6926C20.422 64.5812 20.8885 64.2267 21.2365 63.7894C21.237 64.0893 21.1968 64.3809 21.1189 64.6564L21.1048 64.7052C20.9178 65.4955 20.0608 66.3202 19.4484 66.5023C18.9805 66.6757 18.693 66.6964 18.5546 66.7064C18.5155 66.7092 18.4871 66.7112 18.4706 66.7156H18.4597L18.1434 66.7467C17.861 66.7745 17.5768 66.8024 17.2878 66.8313L16.9389 66.8665C16.0862 66.9525 15.2089 67.0409 14.3269 67.1188C14.2646 67.1216 14.1815 67.1313 14.0762 67.1435C13.8453 67.1701 13.5295 67.2066 13.1173 67.2128ZM12.5677 67.1893C11.5417 67.0858 10.7206 66.6363 10.129 65.8533C9.6266 65.1091 9.60205 64.5815 9.58553 64.2323C9.58364 64.1919 9.58175 64.1537 9.57939 64.1176C9.59025 63.5178 9.67996 63.15 9.72292 62.9732L9.73001 62.9436L9.73473 62.9244C9.82869 62.1389 9.89762 61.4109 9.94625 60.6989C10.0194 59.6886 10.06 58.688 10.0652 57.7249V56.9584C9.58458 56.3803 9.07323 55.8032 8.5312 55.1921L8.50617 55.1639C8.29937 54.9303 8.08973 54.6934 7.8782 54.4526C6.59487 52.9828 5.28369 51.4931 3.86957 49.8985C3.34312 49.2984 2.80675 48.6932 2.30579 48.1286C1.37186 47.0706 1.24768 46.1732 1.2354 45.5903C1.23068 44.7373 1.5593 44.0659 1.83599 43.6528C1.83457 43.6928 1.8341 43.7327 1.8341 43.7806C1.85865 44.9975 2.4564 45.812 2.90448 46.3188L3.1637 46.6114C3.59997 47.1033 4.03625 47.5951 4.47016 48.087C5.93621 49.7449 7.24692 51.2351 8.47784 52.6429C8.68748 52.8823 8.89617 53.1177 9.10156 53.35L9.1653 53.4219C9.66815 53.9901 10.1885 54.5777 10.6639 55.1486C10.6639 55.2111 10.6639 55.2785 10.6644 55.351C10.6649 55.5135 10.6654 55.7014 10.6639 55.9152C10.6587 56.8743 10.6191 57.875 10.5464 58.8892C10.4987 59.5674 10.4288 60.2954 10.333 61.1147L10.3226 61.158C10.2787 61.3384 10.1889 61.7059 10.1776 62.3061C10.179 62.3286 10.18 62.3519 10.1814 62.3761L10.1838 62.4205C10.2003 62.7702 10.2248 63.2987 10.7272 64.0417C11.2357 64.7163 11.9194 65.1456 12.7575 65.3177L12.5677 67.1893ZM28.1347 61.3318C26.8288 61.3318 25.0615 60.8145 24.0171 59.3629C22.8985 57.7586 22.7672 56.011 22.7243 54.2121C22.7224 54.129 22.7224 54.0332 22.7224 53.9464L22.7337 52.2452C22.6742 52.3312 22.6147 52.417 22.5552 52.5028C22.4618 52.637 22.3687 52.7713 22.2762 52.9068C21.923 53.4169 21.5689 53.9292 21.2167 54.4401V54.3911C21.2186 53.9914 21.2223 53.6861 21.2275 53.4836C21.3484 53.3064 21.4716 53.1274 21.5944 52.9502C22.0212 52.3319 22.4476 51.7136 22.8749 51.0953C22.9349 51.0075 22.9958 50.92 23.0567 50.8325C23.1483 50.7003 23.2394 50.5681 23.3301 50.4354L23.323 52.1349C23.3211 52.2229 23.3211 52.318 23.323 52.4024C23.3659 54.2029 23.4972 55.9516 24.6153 57.5531C25.6597 59.0049 27.4284 59.5221 28.7349 59.5221L28.7736 59.522C28.7962 59.522 28.8189 59.5215 28.8416 59.5211C28.8642 59.5206 28.8869 59.5202 28.9096 59.5202C29.1253 59.5185 29.3633 59.5061 29.6362 59.4822C30.7179 59.3717 31.81 59.0376 32.9734 58.4607C33.0499 58.4225 33.125 58.3847 33.2015 58.345C33.6505 58.6837 34.1855 58.8627 34.7492 58.8627C34.8946 58.8627 35.042 58.8503 35.186 58.8259C35.4749 58.7762 35.7157 58.7394 35.9438 58.7102C36.2214 58.6731 36.4764 58.6433 36.7011 58.6216C36.999 58.5928 37.2313 58.5744 37.4556 58.562C37.4962 58.5583 37.5392 58.5548 37.585 58.5511C37.9486 58.5216 38.4467 58.4813 39.1167 58.2329C39.5988 58.049 40.0086 57.79 40.3693 57.4411C40.4746 57.3393 40.5794 57.2207 40.6805 57.0885C41.0629 57.335 41.4926 57.5085 41.8916 57.577L42.0072 59.4099C41.9114 59.4165 41.8415 59.4171 41.816 59.4171C41.8023 59.4177 41.7891 59.4184 41.7764 59.4192C41.7461 59.4209 41.7183 59.4225 41.6895 59.4225L41.6763 59.4226C41.1805 59.4226 40.5993 59.2314 40.0822 58.8982C39.9831 59.0281 39.8787 59.1468 39.7711 59.2508C39.4151 59.5975 39.0053 59.8571 38.5185 60.0444C37.8503 60.291 37.3517 60.3313 36.9872 60.3607C36.941 60.3644 36.8975 60.368 36.8569 60.3717C36.5954 60.388 36.3423 60.4081 36.1048 60.4313C35.8654 60.454 35.6142 60.4858 35.372 60.5166L35.3451 60.5199C35.0679 60.5573 34.821 60.5951 34.5896 60.6356C34.4451 60.6604 34.2978 60.6729 34.1519 60.6729C33.5901 60.673 33.0542 60.4938 32.6028 60.1547C32.5348 60.1905 32.4663 60.2248 32.3979 60.259L32.3747 60.2704C31.2061 60.8501 30.1145 61.1836 29.0375 61.2901C28.7684 61.3156 28.5309 61.3281 28.3109 61.3281C28.2655 61.3317 28.2207 61.3317 28.1735 61.3317L28.1347 61.3318ZM42.0256 59.4099L41.8968 57.5779C42.0252 57.5995 42.1517 57.6111 42.2745 57.6111L42.2877 57.611C42.3278 57.611 42.3684 57.6093 42.41 57.6076L42.4657 57.6056C42.5063 57.6042 42.554 57.6026 42.6078 57.6002L42.6258 57.5984C42.6994 57.5928 42.7617 57.5865 42.8094 57.5816C42.8392 57.5786 42.8633 57.5762 42.8807 57.5748C42.9686 57.5638 43.0521 57.5529 43.131 57.5425L43.139 57.5414C43.3165 57.5181 43.47 57.498 43.6074 57.4845C43.9341 57.4499 44.198 57.4258 44.4389 57.4085L44.4497 57.4078C44.7368 57.3885 45.0338 57.3686 45.3246 57.3579C45.4389 57.3524 45.555 57.3489 45.6669 57.3455C45.743 57.3432 45.819 57.3409 45.8945 57.338C45.9318 57.3338 45.9738 57.3326 46.0229 57.3312C46.2194 57.3255 46.548 57.316 47.1349 57.0759C47.3067 57.0013 47.8998 56.7091 48.3063 56.0797C48.4782 55.8224 48.6094 55.5136 48.6859 55.1866L48.8129 55.3644L48.8531 55.4207C48.9546 55.5625 49.0556 55.7041 49.1557 55.8465C49.159 55.85 49.1614 55.854 49.1642 55.8582C49.1689 55.865 49.1713 55.8684 49.1741 55.8718L49.1888 55.8984C49.2553 56.0243 49.3946 56.2863 49.8521 56.7197L49.8621 56.7315C49.8649 56.7339 49.8673 56.7364 49.871 56.7391L49.8918 56.7577C50.5812 57.3297 51.2431 57.401 51.6813 57.4049C52.238 57.3893 52.5265 57.2779 52.7805 57.1796L52.8149 57.1663C53.0718 57.0545 53.2503 56.9622 53.5114 56.7686C53.7654 56.5725 53.9236 56.4063 54.0284 56.2963L54.0553 56.2677L54.1984 56.1159C54.4387 55.881 54.7135 55.623 55.0624 55.3041C55.4345 54.973 55.8113 54.6555 56.1814 54.3604L56.1904 54.3567C56.2107 54.3383 56.2603 54.3 56.3188 54.2555C56.3273 54.2744 56.3335 54.2925 56.3401 54.3105L56.342 54.315C56.3509 54.3404 56.3599 54.3633 56.3712 54.3875C56.384 54.4121 56.3977 54.4396 56.4128 54.4699C56.5086 54.6619 56.6526 54.9498 56.9969 55.3312C57.3802 55.7932 58.2504 56.2841 59.1065 56.2841L59.1249 56.284C59.1466 56.284 59.1683 56.284 59.19 56.2822C59.3019 56.2802 59.4247 56.2759 59.5607 56.2587L59.606 56.2515C59.9417 56.198 60.1868 56.1437 60.3327 56.1113C60.428 56.0901 60.4837 56.0778 60.5064 56.0778C60.7991 56.0377 61.0924 56.006 61.3412 55.9803C61.6231 55.9544 61.879 55.9337 62.1254 55.917H62.142C62.184 55.9197 62.2567 55.9229 62.3629 55.9229C62.3856 55.9229 62.4097 55.9228 62.4352 55.9224C62.5641 55.9224 62.7652 55.9178 63.0155 55.8772C63.7615 55.7539 64.3979 55.3901 64.8555 54.825L64.8607 54.8186L64.8649 54.8131L64.8668 54.8196C64.8663 55.0729 64.8649 55.8436 64.2516 56.6347C63.7922 57.2026 63.1562 57.5658 62.4116 57.6851C62.1788 57.7245 61.9951 57.7319 61.8313 57.734C61.725 57.734 61.6434 57.7308 61.5843 57.7284L61.54 57.7267H61.522C61.277 57.7434 61.0201 57.7641 60.7373 57.79C60.4554 57.8193 60.1754 57.8521 59.9053 57.8876C59.885 57.8876 59.8312 57.8996 59.7491 57.9177C59.6022 57.9503 59.3562 58.005 59.0021 58.0612L58.9601 58.0684C58.8369 58.084 58.7117 58.0919 58.5876 58.0919C58.5658 58.0937 58.5427 58.0937 58.5224 58.0937L58.5045 58.0938C57.6484 58.0938 56.7787 57.6029 56.3949 57.1409C56.0469 56.7558 55.9038 56.4672 55.8089 56.2762C55.7952 56.2489 55.7829 56.2244 55.7716 56.2022L55.7692 56.1972C55.7598 56.1759 55.7522 56.1553 55.7442 56.1348C55.7352 56.1113 55.7267 56.0887 55.7168 56.0653C55.6682 56.1044 55.6276 56.1343 55.6026 56.1529L55.587 56.1647L55.5794 56.1719C55.1975 56.4746 54.8221 56.7921 54.4618 57.1156C54.1762 57.3735 53.8924 57.6384 53.5959 57.9256C53.5954 57.9261 53.5916 57.9303 53.5831 57.9394C53.5652 57.959 53.5265 58.0012 53.4552 58.0774L53.4103 58.1231C53.3013 58.2365 53.1516 58.3918 52.9075 58.5782C52.645 58.7732 52.4736 58.8624 52.2111 58.9778L52.1723 58.9927C51.9197 59.0895 51.6327 59.1991 51.0798 59.2146C50.644 59.2127 49.9839 59.1435 49.2917 58.5674L49.27 58.5511C49.2634 58.5429 49.2535 58.5351 49.2483 58.5312C48.7955 58.0991 48.6543 57.8354 48.5863 57.7087L48.5717 57.6815C48.5688 57.6775 48.566 57.6735 48.5632 57.6696L48.5603 57.6657C48.5565 57.6601 48.5561 57.6581 48.5542 57.6562C48.4602 57.5225 48.3648 57.3896 48.27 57.2565L48.2237 57.1923L48.0834 56.9963C48.0088 57.3216 47.8771 57.6312 47.7043 57.8912C47.2949 58.5189 46.7038 58.811 46.5329 58.8856C45.9507 59.1241 45.6211 59.1351 45.4242 59.1417C45.3742 59.1434 45.3308 59.1448 45.2925 59.1495L45.1485 59.1534C45.0087 59.1571 44.8638 59.1608 44.7231 59.1676C44.3926 59.1817 44.1116 59.1984 43.8392 59.2201C43.5361 59.2398 43.2363 59.27 43.0092 59.2942C42.8869 59.3063 42.7532 59.3234 42.5974 59.3432L42.5894 59.3442C42.4931 59.3566 42.3911 59.3696 42.282 59.3827L42.2589 59.3855C42.2079 59.3915 42.13 59.4006 42.0256 59.4099ZM65.3885 44.903C65.3956 44.503 65.4032 44.2135 65.4107 44.0445C65.4244 43.7153 65.4386 43.4155 65.4542 43.1279L66.7701 43.0429C67.7488 42.9794 68.595 42.3781 68.9779 41.4737L69.0751 41.2447L69.1427 41.0862C69.1039 41.5214 69.009 41.7737 68.933 41.9764C68.9141 42.0263 68.8971 42.0714 68.882 42.1155C68.8088 42.2921 68.7432 42.4301 68.7078 42.5042C68.6922 42.5367 68.6809 42.5611 68.6743 42.5765L68.5591 42.8481L68.4901 43.01C68.4509 43.1024 68.4127 43.1939 68.374 43.2852C67.9915 44.1887 67.1459 44.7893 66.1681 44.8526L65.3885 44.903ZM12.5696 38.854L12.5682 38.8522C12.4492 38.6864 12.3283 38.516 12.2117 38.3508L12.2036 38.3394L12.0955 38.1869C11.9331 37.9755 11.8665 37.8799 11.8226 37.8167C11.7839 37.7602 11.7593 37.7249 11.6975 37.6516C11.698 37.6486 11.698 37.6457 11.698 37.6427C11.7721 36.2997 11.8283 34.9937 11.866 33.7612C11.9019 32.5866 11.9251 31.337 11.9364 29.9411C11.9392 29.0863 11.9378 28.378 11.9331 27.7119C11.9317 27.5074 11.9274 27.3046 11.9227 27.0797C11.8958 25.7835 11.8698 24.56 12.5478 23.4091C12.7155 23.1241 12.8921 22.9271 13.0866 22.8071C13.1777 22.7498 13.2764 22.7191 13.3713 22.6895C13.2929 22.8569 13.2263 23.0299 13.1749 23.2048C12.9879 23.821 12.9633 24.3397 12.9652 24.8084C12.9695 25.1251 12.986 25.3981 12.9969 25.5788C13.0058 25.7262 13.012 25.8357 13.0106 25.9022C13.0167 26.7478 13.0176 27.4764 13.012 28.1295C13.003 29.4949 12.9808 30.745 12.944 31.9515C12.9081 33.1278 12.8524 34.3974 12.7754 35.833C12.7174 36.8322 12.6621 37.721 12.6055 38.5503C12.6055 38.5774 12.5965 38.6484 12.5833 38.7466L12.57 38.8517L12.5696 38.854ZM59.5078 36.831L59.5102 36.8292C59.556 36.7865 59.6008 36.7435 59.6457 36.7005C59.699 36.6492 59.7524 36.5979 59.8081 36.5471C59.8827 36.4777 59.9554 36.4007 60.0248 36.3181C60.0286 36.3774 60.0295 36.4465 60.0291 36.5146C60.0267 36.6052 60.0201 36.6971 60.0083 36.7876L59.9403 36.7936L59.5106 36.8308L59.5078 36.831Z" fill="#125CF7" stroke="black"/>
<path d="M19.9052 22.8848C21.5192 22.7704 22.8647 22.7098 23.9428 22.7055C25.0214 22.7 25.7929 22.7491 26.2604 22.8518C27.4924 23.112 28.4137 23.545 29.0188 24.1506C29.6249 24.7571 29.9131 25.5229 29.8844 26.4499C29.8552 27.4026 29.4722 28.2418 28.7311 28.9702C27.9917 29.697 26.9182 30.2803 25.5126 30.7198C27.2176 30.9381 28.5001 31.402 29.3638 32.112C30.2272 32.8229 30.6401 33.7607 30.6037 34.9255C30.5728 35.9282 30.2839 36.8052 29.7362 37.5523C29.1883 38.2996 28.3749 38.928 27.2935 39.4378C26.6726 39.7286 25.8046 39.9733 24.6923 40.171C23.5795 40.3706 22.1691 40.5298 20.4624 40.6514C19.2737 40.7361 18.0855 40.8218 16.8968 40.907C16.4556 40.9379 16.0056 41.0533 15.6157 40.8623C14.8291 40.4767 15.1269 39.4316 15.176 38.7271C15.2403 37.8106 15.2988 36.8941 15.3488 35.9768C15.4242 34.6129 15.4821 33.2983 15.5209 32.031C15.5597 30.7643 15.5826 29.4688 15.591 28.1454C15.5944 27.3926 15.5939 26.6386 15.5889 25.8853C15.5843 25.2758 15.4601 24.5479 15.6399 23.9622C15.9517 22.9461 16.9758 23.0935 17.8327 23.0329C18.5235 22.9836 19.2141 22.9339 19.9052 22.8848ZM20.241 31.1468C21.7732 30.9534 22.9624 30.5273 23.8097 29.8681C24.6564 29.2091 25.0939 28.3742 25.126 27.3617C25.1586 26.3236 24.7682 25.5253 23.9545 24.9632C23.1412 24.4017 22.0006 24.1484 20.5311 24.2023L20.241 31.1468ZM20.0624 39.3308C21.9075 39.0795 23.3164 38.6194 24.2894 37.947C25.262 37.2751 25.7646 36.4155 25.7967 35.3709C25.8288 34.324 25.3699 33.5355 24.4158 33.0062C23.4648 32.4763 22.0609 32.2223 20.2068 32.2436L20.0624 39.3308Z" fill="#125CF7"/>
<path d="M44.8324 32.053C44.8278 32.8663 44.6924 33.6273 44.4262 34.3375C44.1602 35.0465 43.7614 35.7009 43.2329 36.3008C42.5682 37.0447 41.8058 37.6324 40.9424 38.063C40.08 38.4948 39.1383 38.7581 38.1205 38.8546C37.3157 38.9314 36.5725 38.8795 35.8889 38.7019C35.2045 38.5226 34.6001 38.2232 34.0766 37.8038C33.4602 37.3064 32.977 36.6529 32.6225 35.8419C32.267 35.0307 32.0927 34.1639 32.0978 33.2421C32.1035 32.2907 32.2892 31.3966 32.6584 30.5607C33.0265 29.7241 33.5591 28.995 34.2568 28.3748C34.8783 27.8166 35.5727 27.375 36.3401 27.0473C37.1075 26.7194 37.9304 26.5145 38.8096 26.4314C39.5787 26.3591 40.2827 26.3926 40.9209 26.5365C41.5592 26.6789 42.1316 26.9329 42.6379 27.2969C43.3464 27.8018 43.8907 28.4665 44.2706 29.2897C44.6507 30.1122 44.8379 31.0332 44.8324 32.053ZM37.6681 27.8006C37.0091 27.9887 36.5692 28.8363 36.3058 29.4589C35.9951 30.1923 35.8383 31.0184 35.8338 31.9338C35.8254 33.4183 36.1119 34.6336 36.6934 35.5805C37.0938 36.2318 37.7306 36.9478 38.4417 37.258C39.5182 37.7293 40.2377 36.515 40.6131 35.6643C40.9316 34.9426 41.0939 34.1185 41.099 33.1966C41.1064 31.7135 40.8098 30.4947 40.2114 29.541C39.8047 28.893 39.0856 28.1343 38.3654 27.848C38.1097 27.7467 37.8782 27.7398 37.6681 27.8006Z" fill="#125CF7"/>
<path d="M48.6994 29.6543L48.6606 36.8755L46.9211 37.9077L46.974 27.8901L46.2695 27.1792C46.7499 26.8051 47.22 26.4259 47.683 26.0446C48.1447 25.6626 48.6051 25.2702 49.0623 24.8695C50.2208 26.2689 51.3516 27.5729 52.4488 28.7789C53.547 29.9877 54.5859 31.0675 55.5656 32.0242L55.6011 25.1678L57.3157 24.1289L57.2642 33.8683L58.0534 34.6585C57.5967 35.0826 57.1629 35.5068 56.7529 35.9295C56.3409 36.3532 55.9477 36.7817 55.5719 37.2157C54.3949 35.8867 53.233 34.5929 52.0888 33.3348C50.9437 32.0776 49.8146 30.8518 48.6994 29.6543Z" fill="#125CF7"/>
<path d="M13.4265 62.8157C13.1687 62.7887 12.9444 62.7082 12.8125 62.5261C12.6591 62.3162 12.8609 61.6943 12.8906 61.4482C12.9849 60.659 13.062 59.8672 13.1187 59.0732C13.195 57.986 13.236 56.9387 13.2417 55.9303C13.2451 55.4614 13.2434 55.1069 13.241 54.8682C13.2367 54.6295 13.2309 54.412 13.223 54.2174C12.341 53.0876 11.3612 52.026 10.4186 50.9476C9.08485 49.4212 7.74391 47.9 6.40058 46.3814C5.87923 45.7907 5.35669 45.2011 4.83415 44.6113C3.95902 43.6215 4.59143 43.1827 5.42754 42.4486C6.01232 41.9328 6.59782 41.4191 7.18307 40.904C7.78029 40.3781 8.35837 39.8 8.9915 39.3176C9.52744 38.9098 9.66125 39.2145 9.99493 39.6839C10.2293 40.014 10.4646 40.3441 10.6994 40.6744C11.3387 41.5727 11.9781 42.4728 12.6174 43.3711C14.1377 45.5099 15.6574 47.6474 17.1776 49.785C17.2866 49.6232 17.395 49.4618 17.5041 49.3C17.8867 48.7291 18.2687 48.1592 18.6519 47.5886C19.1625 46.8283 19.6721 46.0686 20.1822 45.3086C20.6619 44.5933 21.1418 43.8779 21.6222 43.1629C21.8008 42.8957 21.9801 42.6284 22.1591 42.3617C22.2262 42.2638 22.2918 42.1654 22.3564 42.0668C22.3964 42.0072 22.4189 41.934 22.4569 41.8777C22.5479 41.7475 22.7413 41.7283 22.8868 41.7272C23.1113 41.7254 23.3351 41.724 23.5597 41.7224C23.9913 41.719 24.4245 41.7159 24.8559 41.7125C25.1019 41.7109 25.3485 41.709 25.5941 41.7073C25.7959 41.7058 26.2363 41.7774 25.9936 42.0635C25.9052 42.1652 25.8306 42.2755 25.7542 42.3871C25.589 42.6257 25.4244 42.866 25.2582 43.1047C24.8104 43.7534 24.362 44.4028 23.9142 45.0517C23.3835 45.8203 22.8531 46.5899 22.3233 47.3573C21.7996 48.1166 21.2766 48.8742 20.7531 49.6323C20.3261 50.2511 19.899 50.8691 19.4727 51.4879C19.2309 51.8366 18.9906 52.1859 18.7503 52.5341C18.7254 52.5696 18.7012 52.6045 18.677 52.6395C18.6665 52.8379 18.6579 53.0528 18.6524 53.2898C18.6457 53.5239 18.6411 53.888 18.639 54.377C18.6328 55.6119 18.6861 56.8904 18.7979 58.215C18.8604 58.9504 18.9372 59.6843 19.0287 60.4165C19.0766 60.7916 19.1283 61.1667 19.1828 61.5416C19.2104 61.7321 19.2963 61.9497 19.2372 62.1412C19.1776 62.3365 18.9815 62.3241 18.8125 62.3413C18.4176 62.3786 18.0238 62.4188 17.6293 62.4584C16.6546 62.5567 15.6811 62.6565 14.7045 62.7408C14.2923 62.776 13.8406 62.8578 13.4265 62.8157Z" fill="#125CF7"/>
<path d="M34.7509 56.2864C34.7738 55.9357 34.7897 55.586 34.8021 55.2373C34.815 54.8878 34.8201 54.5426 34.8222 54.2001C33.6998 55.0692 32.7009 55.7196 31.8272 56.1536C30.9531 56.5875 30.1402 56.8418 29.3873 56.9162C28.1221 57.0395 27.2232 56.7415 26.6873 56.0195C26.1525 55.2976 25.8895 54.0086 25.8998 52.1516L25.9136 49.5898C25.9177 48.7712 25.9086 47.869 25.8878 46.8852C25.8765 46.3809 25.7968 43.9917 25.7818 43.4871C25.7659 42.9881 26.1272 42.845 26.4311 42.828C26.6609 42.8155 27.9497 42.7157 28.1558 42.6948C28.58 42.653 29.0008 42.589 29.4216 42.5244C29.6131 42.4938 29.8261 42.4301 29.8812 42.6778C29.9125 42.8277 29.8694 42.9807 29.8632 43.1301C29.8503 43.4309 29.8395 43.7335 29.8283 44.0346C29.8048 44.6773 29.7861 45.3186 29.7699 45.961C29.7407 47.2227 29.721 48.6008 29.7143 50.0971C29.7043 51.7492 29.8869 52.8524 30.2603 53.4054C30.6328 53.9595 31.3025 54.1888 32.2667 54.0933C32.6801 54.0529 33.0964 53.942 33.5172 53.7616C33.9375 53.5806 34.3672 53.3211 34.8088 52.9841L34.81 52.6865C34.8488 50.492 34.8706 48.8868 34.8768 47.869C34.8823 46.7495 34.8806 45.7056 34.8722 44.7364C34.8643 43.7691 34.8492 42.8454 34.8272 41.9672C35.2935 41.9494 37.3083 41.7958 37.5448 41.7618C38.1746 41.6716 38.7735 41.7065 38.7605 42.6281C38.7476 43.609 38.6808 47.5157 38.6751 48.6831C38.6684 49.8512 38.6741 50.9796 38.6918 52.0697C38.6993 52.5997 38.711 53.1277 38.7256 53.6569C38.7375 54.1242 38.8773 54.7604 38.7768 55.2145C38.6337 55.8565 37.855 55.9532 37.2875 55.9901C37.006 56.008 36.7273 56.0303 36.4492 56.0578C36.1701 56.0851 35.8869 56.1186 35.6004 56.156C35.3134 56.1955 35.0307 56.2381 34.7509 56.2864Z" fill="#125CF7"/>
<path d="M42.4443 55.0286C41.9083 55.0659 41.7836 54.5573 41.8138 54.1235C41.8396 53.7654 41.8638 53.4069 41.8875 53.0488C41.9313 52.3723 41.9713 51.6964 42.0067 51.0192C42.0644 49.9253 42.1077 48.8699 42.1364 47.8531C42.1649 46.8357 42.1807 45.7959 42.1819 44.7324C42.1836 44.0871 42.1812 43.441 42.1735 42.7959C42.1699 42.4673 42.1656 42.1382 42.1599 41.8095C42.1511 41.3681 42.337 40.948 42.7387 40.7376C42.8359 40.6873 42.9206 40.7029 43.0245 40.6967C43.1854 40.6864 43.3481 40.673 43.5095 40.66C44.2039 40.6105 44.8983 40.559 45.5908 40.5078C47.4415 40.3719 48.7617 40.3197 49.5482 40.3503C50.3365 40.3812 50.965 40.4877 51.4347 40.6713C52.2275 40.9739 52.8287 41.4169 53.241 41.9996C53.6522 42.5814 53.8477 43.2725 53.8236 44.072C53.7994 44.973 53.5612 45.7428 53.1079 46.3821C52.655 47.022 52.0039 47.51 51.1515 47.844C51.6714 48.4397 52.2483 49.0707 52.8822 49.7402C53.2443 50.1223 53.6084 50.5005 53.977 50.8758C54.181 51.085 54.3871 51.2935 54.5934 51.5005C54.7119 51.6205 54.9124 51.7404 54.9096 51.9293C54.9067 52.1294 54.7265 52.2275 54.5876 52.3364C54.1623 52.6747 53.7451 53.0263 53.341 53.3897C53.0224 53.6764 52.7084 53.9692 52.4017 54.2679C52.2533 54.4132 52.1123 54.593 51.9484 54.7188C51.8663 54.7823 51.659 54.8778 51.5673 54.7998C51.455 54.7035 51.365 54.5051 51.2781 54.3828C51.073 54.0929 50.8662 53.8035 50.6584 53.5144C50.2572 52.9576 49.8517 52.403 49.441 51.8524C48.6944 50.8507 47.955 49.8906 47.2189 48.9709L45.9644 49.0429C45.9577 49.9971 45.973 50.949 46.0118 51.8996C46.036 52.4817 46.0669 53.0632 46.1061 53.6446C46.1253 53.9258 46.1241 54.2205 46.1741 54.4974C46.2162 54.7318 46.0427 54.7591 45.8363 54.7641C45.6302 54.7679 45.4246 54.7753 45.2185 54.7837C44.8942 54.7969 44.5739 54.8155 44.2532 54.8393C43.9408 54.8613 43.6313 54.89 43.329 54.9221C43.0762 54.9489 42.8251 54.985 42.5719 55.0152C42.533 55.0195 42.4886 55.0252 42.4443 55.0286ZM45.9898 48.1209C47.2594 47.9191 48.2219 47.5287 48.8813 46.9487C49.5382 46.3694 49.8802 45.6013 49.9078 44.6451C49.9341 43.6828 49.6442 42.9415 49.037 42.4208C48.4309 41.9002 47.5275 41.6159 46.3263 41.5677C46.238 42.7315 46.1708 43.8053 46.119 44.7853C46.0661 45.7672 46.0319 46.633 46.0106 47.3841L45.9898 48.1209Z" fill="#125CF7"/>
<path d="M67.1496 38.8453C67.2861 39.0478 66.9945 39.5466 66.9002 39.7702C66.8013 40.0038 66.7018 40.2377 66.6029 40.4722L63.0433 40.7042C62.9494 41.7644 62.8822 42.841 62.8355 43.9345C62.7888 45.0276 62.762 49.2396 62.7883 50.2401C62.8075 51.0774 62.8377 51.915 62.8781 52.7518C62.8934 53.0733 62.9619 53.2724 62.599 53.3335C62.4018 53.3653 62.194 53.3294 62.0013 53.3416C61.6994 53.3619 61.3933 53.3864 61.0876 53.4165C60.7827 53.447 60.4741 53.4814 60.1696 53.5235C59.8539 53.564 59.5416 53.6564 59.2333 53.7019C58.9517 53.7433 58.812 53.5118 58.699 53.2753C58.5635 52.9933 58.6432 52.6479 58.6614 52.3265C58.7011 51.6088 58.7366 50.8917 58.76 50.1741C58.7911 49.2465 58.8062 45.3408 58.7708 44.2835C58.7366 43.2252 58.6798 42.1777 58.5972 41.1408L55.7212 41.4247C55.6731 41.4288 55.3579 40.5876 55.327 40.5175C55.2786 40.4093 55.2353 40.2972 55.1836 40.1907C55.146 40.1142 55.0618 40.0208 55.0809 39.9298C55.1185 39.7345 55.4271 39.7682 55.5697 39.7577C55.8359 39.7379 56.1023 39.7165 56.3692 39.6938C56.9107 39.6483 57.4516 39.5997 57.9928 39.5531C59.8905 39.3922 61.7887 39.2259 63.686 39.0559C64.4776 38.9848 65.2699 38.9132 66.0607 38.8388C66.3334 38.8132 66.6046 38.7821 66.8772 38.76C67.0228 38.7485 67.1068 38.7825 67.1496 38.8453Z" fill="#125CF7"/>
<path d="M32.916 2.86125C32.6596 2.78825 32.3118 3.39241 31.3046 5.46247C31.2361 5.60154 31.1736 5.73247 31.1152 5.85671C32.1046 4.79702 32.5115 4.11483 32.843 3.55734C33.0991 3.13605 33.0625 2.89788 32.916 2.86125Z" fill="#125CF7"/>
<path d="M46.9516 5.81544C46.8965 5.59546 46.6581 5.41211 46.3283 5.41211C45.8883 5.41211 45.3196 5.77882 44.7513 6.69584C44.2194 7.53914 44.293 8.23594 44.5864 8.32785C44.9074 8.42408 45.9312 7.74715 46.9564 5.82957C46.9549 5.82454 46.9528 5.82095 46.9516 5.81544Z" fill="#125CF7"/>
<path d="M35.8158 0C25.1378 0 20.5879 3.43062 20.5879 7.94391C20.5879 12.7873 29.5592 18.3828 35.834 18.3828C42.0903 18.3828 51.0803 12.7873 51.0803 7.94391C51.0803 3.43062 46.4935 0 35.8158 0ZM39.2098 2.29315C39.5767 2.21966 40.2189 2.60504 40.2189 2.93537C40.2189 3.41243 39.4482 3.85263 39.1181 3.68747C38.788 3.57736 38.8246 2.47674 39.2098 2.29315ZM42.2371 15.0072L41.1913 14.64L40.4942 14.145L40.1455 14.8423L38.6963 13.3376L37.944 12.8055L37.2836 11.3379L36.5128 10.5308L35.9625 10.3656L36.5863 11.3379L36.311 12.0352L36.5128 12.8974L36.1459 13.1724L36.5863 13.5212L36.6045 14.0349L35.834 13.4477L35.5221 13.6861L37.155 14.9706L37.6137 15.851L35.2102 13.943L34.9167 14.2L37.7786 16.4566L37.2467 16.5482L34.6048 14.4935L34.3113 14.7685L36.678 16.6033L36.0726 16.6399L33.7974 14.8423L32.7516 14.5486L35.4304 16.6399L34.7331 16.5849L32.018 14.4569L31.6326 14.6771L33.9075 16.4566L33.0819 16.2914L31.0272 14.6771L30.8805 15.0989L32.1096 16.0527C30.66 15.5944 29.7246 15.1539 28.7705 14.6953L29.1927 14.5119L29.9814 14.7319L30.9537 13.943L31.7609 14.0531L33.6323 12.879L34.1644 11.6132L34.9533 11.0811L35.3019 10.3656L35.8158 9.88854L36.7512 10.1454L37.6869 11.0995L38.4577 12.5304L39.0448 12.934L39.7969 13.723L40.4207 13.5212L41.3933 14.2367L42.8609 14.7137L42.2371 15.0072ZM48.6217 8.29243C48.0161 9.13644 46.9155 9.90697 46.1634 9.6317C45.9063 9.54002 45.6679 9.26474 45.6679 8.98947C45.6679 8.79199 45.706 8.57393 45.7821 8.32953C44.8608 9.21113 44.3306 9.42823 44.0352 9.33823C43.7049 9.24631 43.4112 9.02633 43.3561 8.47603C43.3329 8.31158 43.3379 8.11147 43.3748 7.88551C42.4815 8.89205 41.9762 9.13692 41.5948 9.02633C41.2647 8.93465 41.0812 8.64095 41.0812 8.29243C41.0812 7.72369 43.0076 5.1919 42.6591 5.1919C42.458 5.1919 41.1642 5.81162 39.7759 8.15647C39.6761 8.38219 39.6021 8.58087 39.5767 8.73287C39.5399 8.89779 39.4118 8.98947 39.2466 8.93465C38.8979 8.84274 38.7512 8.51265 38.7512 8.20075C38.7512 8.07078 38.8716 7.79287 39.052 7.43669C38.1391 8.5622 37.4464 8.99498 36.9899 8.84274C36.7146 8.73287 36.4944 8.49422 36.4944 8.16413C36.4944 8.0004 36.7031 7.58366 36.9726 7.08003C36.0831 8.00519 35.179 8.62037 34.4997 8.76877C34.3518 8.80372 34.2142 8.81306 34.0904 8.79822C34.0818 8.79726 34.0734 8.79582 34.0648 8.79486C34.0394 8.7908 34.0141 8.7872 33.9899 8.78146C33.9552 8.77332 33.9214 8.76351 33.8893 8.75106C33.6873 8.67781 33.4858 8.45759 33.4489 8.20075C33.4123 8.03559 33.504 7.8338 33.7242 7.88886C34.403 8.05378 35.2102 7.44842 35.6322 6.62284C36.0542 5.79726 36.091 5.13684 35.7973 5.04516C35.4287 4.92787 34.2043 6.27863 33.2399 7.99442C32.6853 9.10365 31.9897 10.5073 31.8344 10.9894C31.7609 11.2096 31.5591 11.3195 31.3207 11.2096C31.0454 11.0811 30.8436 10.8609 30.8436 10.4939C30.8436 10.1672 31.7628 8.74364 32.4977 7.34262C31.1811 9.01484 30.2394 9.32052 29.8347 9.11801C29.5776 8.98947 29.3576 8.71444 29.3392 8.38435C29.3351 8.30057 29.3387 8.21224 29.3478 8.11961C28.3753 9.34757 27.5434 9.65563 27.0824 9.41148C26.844 9.28318 26.6607 9.04453 26.6607 8.78768C26.6607 8.50643 26.7708 8.16987 26.9187 7.81154C25.4614 9.41196 24.4068 9.97304 23.5048 9.57664C22.7161 9.22812 22.2572 7.79718 23.2296 5.98061C24.4405 3.72409 27.1193 2.47674 28.954 3.06367C29.596 3.26546 29.9079 3.7059 29.9079 3.96274C29.9079 4.29283 29.5776 4.45799 29.3942 4.2744C29.2475 4.12766 29.0273 4.01779 28.7336 3.94455C27.0642 3.50411 25.211 4.69664 24.4039 6.21926C23.7251 7.5219 23.9453 8.31086 24.3855 8.47603C25.0461 8.73287 26.5139 7.68707 28.055 4.93505C28.2199 4.62316 28.33 4.53148 28.4952 4.53148C28.7336 4.53148 29.0457 4.91686 29.0457 5.26538C29.0457 5.54041 28.5318 6.25613 28.1648 7.04484C27.7797 7.88886 27.7613 8.10884 28.0184 8.20075C28.2561 8.28573 28.7779 7.91255 29.8151 6.57544C30.0156 6.08067 30.2713 5.49996 30.5683 4.80675C31.5775 2.45831 32.4215 1.57768 33.2105 1.7797C33.9075 1.96306 34.0361 2.69672 33.5222 3.63241C33.0279 4.5298 32.2042 5.64645 30.5956 7.14658C30.4269 7.72944 30.5322 7.91351 30.7335 7.98053C30.9784 8.06814 32.474 7.08721 33.5509 5.00782C33.6847 4.66026 33.8017 4.32466 33.8893 4.01779C33.9444 3.8342 34.0911 3.77938 34.2745 3.8342C34.5313 3.94455 34.77 4.2744 34.77 4.58653C34.77 4.68252 34.6038 5.08538 34.3542 5.64071C35.1115 4.69377 35.8526 4.0324 36.256 4.14634C36.9715 4.34788 37.2836 5.26538 36.5312 6.76957C36.4984 6.8354 36.4642 6.89548 36.4307 6.95771C37.0703 6.3964 37.6635 5.69864 38.0216 5.06096C38.1317 4.83069 38.2178 4.62483 38.2557 4.45799C38.2925 4.29283 38.3842 4.21958 38.5678 4.29283C38.8613 4.42137 39.0812 4.62316 39.0812 4.99011C39.0812 5.22852 38.6963 5.77907 38.3658 6.42105C37.9991 7.0999 37.6137 7.66864 37.8339 7.77875C38.0139 7.86875 39.396 6.75401 40.3145 4.83763C40.3812 4.66457 40.4318 4.51879 40.4576 4.42137C40.5124 4.23801 40.6225 4.16453 40.8061 4.23801C41.0996 4.34788 41.3014 4.54991 41.3014 4.82494C41.3014 4.98005 41.14 5.34365 40.9279 5.7805C41.878 4.72704 42.8312 4.25621 43.1361 4.25621C43.5031 4.25621 43.87 4.62316 43.87 5.06359C43.87 5.37549 42.1451 7.81537 42.3287 7.92548C42.4841 8.01859 42.9805 7.61286 43.9957 6.33081C44.0261 6.28174 44.0575 6.23219 44.09 6.18264C44.7689 5.1919 45.4846 4.62316 46.3283 4.62316C46.8078 4.62316 47.1336 4.91973 47.2681 5.20745C47.3097 5.11865 47.3512 5.02817 47.3926 4.93505C47.4658 4.76989 47.5944 4.64159 47.8143 4.73327C48.0346 4.82494 48.2366 5.11841 48.2182 5.33863C48.1997 5.57704 47.3557 6.95317 47.0625 7.50371C46.7504 8.10884 46.6771 8.5677 46.9155 8.67781C47.1542 8.78768 47.631 8.45759 48.1997 7.77875C48.3101 7.65021 48.4384 7.59515 48.5485 7.66864C48.6768 7.76031 48.7869 8.05378 48.6217 8.29243Z" fill="#125CF7"/>
</svg>
