<svg width="43" height="43" viewBox="0 0 43 43" fill="none" xmlns="http://www.w3.org/2000/svg">
<path d="M21.7268 0.726562C10.1287 0.726562 0.726562 10.1287 0.726562 21.7268C0.726562 33.3249 10.1287 42.727 21.7268 42.727C33.3249 42.727 42.727 33.3249 42.727 21.7268C42.727 10.1287 33.3249 0.726562 21.7268 0.726562ZM27.4178 24.4358C27.8154 24.8301 28.039 25.3669 28.039 25.9268C28.039 26.4868 27.8154 27.0235 27.4178 27.4179C27.0235 27.8154 26.4868 28.039 25.9268 28.039C25.3669 28.039 24.8301 27.8154 24.4358 27.4179L21.7268 24.6878L19.0177 27.4179C18.6234 27.8154 18.0867 28.039 17.5267 28.039C16.9668 28.039 16.43 27.8154 16.0357 27.4179C15.6381 27.0235 15.4145 26.4868 15.4145 25.9268C15.4145 25.3669 15.6381 24.8301 16.0357 24.4358L18.7657 21.7268L16.0357 19.0177C15.2123 18.1943 15.2123 16.8592 16.0357 16.0357C16.8592 15.2123 18.1943 15.2123 19.0177 16.0357L21.7268 18.7657L24.4358 16.0357C25.2593 15.2123 26.5944 15.2123 27.4178 16.0357C28.2413 16.8592 28.2413 18.1943 27.4178 19.0178L24.6878 21.7268L27.4178 24.4358Z" fill="white"/>
</svg>
