<svg width="22" height="22" viewBox="0 0 22 22" fill="none" xmlns="http://www.w3.org/2000/svg">
<path d="M5.22649 16.7729C4.82959 16.7729 4.48981 16.6317 4.20717 16.3489C3.92453 16.0663 3.7832 15.7266 3.7832 15.3297V6.66986C3.7832 6.27295 3.92453 5.93323 4.20717 5.65051C4.48981 5.36786 4.82959 5.22656 5.22649 5.22656H16.7728C17.1698 5.22656 17.5095 5.36786 17.7922 5.65051C18.0748 5.93323 18.2161 6.27295 18.2161 6.66986V15.3297C18.2161 15.7266 18.0748 16.0663 17.7922 16.3489C17.5095 16.6317 17.1698 16.7729 16.7728 16.7729H5.22649ZM10.9997 11.7214L16.7728 8.11316V6.66986L10.9997 10.2781L5.22649 6.66986V8.11316L10.9997 11.7214Z" fill="#350062"/>
</svg>
