<svg width="22" height="22" viewBox="0 0 22 22" fill="none" xmlns="http://www.w3.org/2000/svg">
<path d="M17.5565 11.155C17.5565 10.6706 17.513 10.2049 17.4323 9.75781H10.999V12.4032H14.6752C14.5137 13.2539 14.0294 13.9742 13.3028 14.4586V16.1787H15.5197C16.8113 14.9864 17.5565 13.2353 17.5565 11.155Z" fill="white"/>
<path d="M10.9983 17.8313C12.8426 17.8313 14.3888 17.2228 15.519 16.1796L13.3021 14.4595C12.6936 14.8693 11.9174 15.1177 10.9983 15.1177C9.22235 15.1177 7.71339 13.9192 7.17315 12.3047H4.90039V14.0682C6.02435 16.2975 8.32815 17.8313 10.9983 17.8313Z" fill="white"/>
<path d="M7.17347 12.2987C7.03686 11.8888 6.95613 11.4542 6.95613 11.0008C6.95613 10.5475 7.03686 10.1129 7.17347 9.70301V7.93945H4.90072C4.43499 8.85849 4.16797 9.89551 4.16797 11.0008C4.16797 12.1062 4.43499 13.1432 4.90072 14.0622L6.67048 12.6837L7.17347 12.2987Z" fill="white"/>
<path d="M10.9983 6.88978C12.0043 6.88978 12.8985 7.23752 13.6126 7.90817L15.5687 5.95211C14.3826 4.84678 12.8426 4.16992 10.9983 4.16992C8.32815 4.16992 6.02435 5.70372 4.90039 7.93922L7.17315 9.70278C7.71339 8.08825 9.22235 6.88978 10.9983 6.88978Z" fill="white"/>
</svg>
